Motion_pl05
version=1
nRows=10
nColumns=43
inDegrees=yes
endheader
time	pelvis_tilt	pelvis_list	pelvis_rotation	pelvis_tx	pelvis_ty	pelvis_tz	hip_flexion_r	hip_adduction_r	hip_rotation_r	knee_angle_r	ankle_angle_r	subtalar_angle_r	mtp_angle_r	hip_flexion_l	hip_adduction_l	hip_rotation_l	knee_angle_l	ankle_angle_l	subtalar_angle_l	mtp_angle_l	lumbar_extension	lumbar_bending	lumbar_rotation	neck_flexion	neck_lateral_bending	neck_rotation	arm_flex_r	arm_add_r	arm_rot_r	elbow_flex_r	pro_sup_r	wrist_flex_r	wrist_dev_r	hand_finger_flex_r	arm_flex_l	arm_add_l	arm_rot_l	elbow_flex_l	pro_sup_l	wrist_flex_l	wrist_dev_l	hand_finger_flex_l
      0.50750000	      3.31349625	    -26.15745672	     96.54918976	      0.03251144	      1.75888655	      1.57577729	     61.29407573	    -13.10072617	      1.89051806	   -126.93329896	     13.52498652	      2.92010874	    -14.07542147	     66.35419004	    -11.66322465	      9.13422719	   -126.12123531	     13.08807004	     -5.29938921	    -19.46619561	    -25.41036973	      3.69123707	     -0.78559180	     22.28432110	     -0.50500325	      4.67159210	    123.35757312	    -17.81774407	     49.68896129	     60.01742794	     58.02777547	    -23.50121219	    -19.55693688	     58.73395937	    129.96654743	    -20.04110713	     66.90734487	     65.31863532	     54.13210414	    -46.04831032	      1.23646274	     71.91890284
      0.51000000	      3.27569612	    -25.96198769	     96.57586879	      0.03232946	      1.76027469	      1.57040115	     61.05745590	    -13.13482333	      1.78451731	   -126.59276231	     11.12336349	      2.36992893	    -13.67281323	     66.12352286	    -11.62849880	      9.03648403	   -125.80401478	     10.78543114	     -6.15732724	    -18.85674567	    -25.39559383	      3.66555961	     -0.85366676	     21.78665442	     -0.38236505	      4.65348799	    123.30480402	    -17.92983018	     49.92929831	     59.97237230	     58.41943300	    -23.49758874	    -19.46014028	     58.48537691	    130.09587063	    -19.98759460	     67.46910267	     65.08376606	     53.99858428	    -45.99627852	      1.14649612	     71.94376075
      0.51250000	      3.23344339	    -25.77126836	     96.59903976	      0.03213852	      1.76161009	      1.56508444	     60.86700087	    -13.15298278	      1.70575561	   -126.24101386	      8.61079338	      1.71657471	    -13.29131480	     65.92136219	    -11.58363887	      8.92612731	   -125.48377316	      8.48350547	     -7.08422911	    -18.24073419	    -25.38698271	      3.63006178	     -0.92239320	     21.29934524	     -0.25158010	      4.63226309	    123.25395305	    -18.06521096	     50.17980871	     59.94322360	     58.83401299	    -23.53129892	    -19.36863945	     58.26174706	    130.22782955	    -19.92262524	     68.02621127	     64.84653668	     53.92252413	    -45.94980362	      1.07457505	     71.98995805
      0.51500000	      3.17900850	    -25.58827484	     96.61141785	      0.03197318	      1.76287267	      1.55979546	     60.71425959	    -13.15926157	      1.65387478	   -125.88699394	      6.02451756	      0.99906716	    -12.93239646	     65.75051971	    -11.53724222	      8.80637228	   -125.17251218	      6.26968063	     -8.00735156	    -17.57869633	    -25.37711586	      3.57570150	     -0.98300276	     20.82896520	     -0.11580424	      4.60820262	    123.20160979	    -18.21562577	     50.44218064	     59.93413613	     59.27415024	    -23.58389804	    -19.27617754	     58.05869781	    130.35271526	    -19.84934842	     68.58838746	     64.61763138	     53.90258191	    -45.90925696	      1.01761709	     72.05862795
      0.51750000	      3.12418757	    -25.41330469	     96.61307178	      0.03182435	      1.76407547	      1.55459344	     60.61141931	    -13.16262543	      1.62617445	   -125.52701333	      3.40301055	      0.27571323	    -12.67208239	     65.61630698	    -11.49116810	      8.69266321	   -124.87214510	      4.23936062	     -8.84843980	    -16.92251806	    -25.37570852	      3.51623395	     -1.02886897	     20.38433451	      0.02038903	      4.57995669	    123.16356084	    -18.37397287	     50.71188458	     59.92579515	     59.72570943	    -23.65431783	    -19.18770231	     57.88365140	    130.48606661	    -19.77400907	     69.13932054	     64.38823023	     53.95179946	    -45.87456833	      0.98761153	     72.14358502
      0.52000000	      3.06359883	    -25.24450449	     96.60515013	      0.03168798	      1.76521153	      1.54944487	     60.54597818	    -13.15082571	      1.62168443	   -125.16151430	      0.81215521	     -0.50372402	    -12.52580939	     65.50926157	    -11.44422083	      8.57273826	   -124.59163921	      2.44588909	     -9.62440747	    -16.23687680	    -25.37965498	      3.44759025	     -1.06419982	     19.96507409	      0.15654633	      4.54949387	    123.13115035	    -18.54295288	     50.98710667	     59.92759502	     60.19850476	    -23.74056973	    -19.10041736	     57.72677400	    130.62033105	    -19.69711630	     69.68605155	     64.16732728	     54.07017427	    -45.84217639	      0.97979433	     72.24624587
      0.52250000	      3.00139136	    -25.08341059	     96.58488262	      0.03156189	      1.76629953	      1.54437120	     60.52158451	    -13.13405741	      1.63534220	   -124.79257407	     -1.68358319	     -1.28636828	    -12.53830748	     65.43074315	    -11.39982778	      8.45075371	   -124.33732915	      0.96982461	    -10.27432480	    -15.52973272	    -25.39537883	      3.37411519	     -1.08770202	     19.57886645	      0.28985772	      4.51657132	    123.11526348	    -18.71679768	     51.26681677	     59.93844433	     60.68817076	    -23.83654075	    -19.01605324	     57.59044981	    130.76527704	    -19.62547202	     70.22535089	     63.95432063	     54.26419674	    -45.80968150	      0.99731756	     72.36252399
      0.52500000	      2.98440061	    -24.88380007	     96.62038343	      0.03132400	      1.76725741	      1.53919869	     60.40932879	    -13.11878519	      1.74690853	   -124.44875184	     -3.56420244	     -1.11634763	    -12.73665435	     65.36211824	    -11.36595233	      8.46931456	   -124.16906892	      0.12116435	    -10.20854447	    -15.42560165	    -25.40545494	      3.38723230	     -1.12148694	     18.95306090	      0.30665432	      4.50100991	    123.09401125	    -18.85672253	     51.63788673	     59.88340938	     60.92953452	    -23.83849195	    -18.93095402	     57.57850999	    130.81549714	    -19.61634100	     70.70041774	     63.82236146	     54.40062083	    -45.75574720	      1.08328665	     72.40810566
      0.52750000	      2.87829892	    -24.75803891	     96.53267889	      0.03135146	      1.76827427	      1.53433458	     60.53043668	    -13.03229779	      1.73335099	   -124.08386594	     -6.00863988	     -2.81146530	    -13.19570119	     65.34182563	    -11.30294379	      8.22954884	   -123.96058572	     -0.79415293	    -11.08026954	    -14.57483993	    -25.45691097	      3.22360791	     -1.10081895	     18.85267822	      0.51594110	      4.45223647	    123.10682422	    -19.09689397	     51.88706638	     59.95658888	     61.63635942	    -24.07691317	    -18.89434925	     57.40528041	    131.05467397	    -19.51028067	     71.30184799	     63.60972388	     54.86993246	    -45.70482267	      1.11486689	     72.58222798
      0.53000000	      2.87132149	    -24.57874506	     96.56969052	      0.03113564	      1.76910231	      1.52926341	     60.47844761	    -13.01597659	      1.80956747	   -123.77009131	     -7.43657161	     -2.64044051	    -13.44191470	     65.34325381	    -11.25258189	      8.20572845	   -123.86736358	     -0.95461652	    -11.06626613	    -14.39566970	    -25.47482827	      3.24494831	     -1.12705639	     18.35757857	      0.53113678	      4.43196514	    123.09954253	    -19.22796524	     52.26112849	     59.91163667	     61.88842184	    -24.06958510	    -18.80657812	     57.40263317	    131.12708701	    -19.50275428	     71.77412995	     63.47954751	     55.05300360	    -45.64227495	      1.20995640	     72.63406509
